<?xml version="1.0" standalone="no"?>
<!DOCTYPE svg PUBLIC "-//W3C//DTD SVG 1.1//EN" "http://www.w3.org/Graphics/SVG/1.1/DTD/svg11.dtd" >
<svg xmlns="http://www.w3.org/2000/svg" xmlns:xlink="http://www.w3.org/1999/xlink" version="1.1">
<metadata></metadata>
<defs>
<font id="hk_groteskregular" horiz-adv-x="1171" >
<font-face units-per-em="2048" ascent="1434" descent="-614" />
<missing-glyph horiz-adv-x="553" />
<glyph unicode="&#xfb01;" horiz-adv-x="1086" d="M92 877v122h149q0 89 18.5 164t57.5 137.5t109 98t164 35.5q80 0 159 -27t134 -91l-72 -106q-51 54 -100 75.5t-106 21.5q-226 0 -226 -308h512v-999h-136v877h-376v-877h-140v877h-147z" />
<glyph unicode="&#xfb02;" horiz-adv-x="1042" d="M50 877v122h149v143q0 142 94 217t251 75q159 0 307 -135v-1116q0 -36 8.5 -49.5t39.5 -13.5q25 0 69 11v-131l-23 -8q-49 -12 -90 -12q-79 0 -110 59.5t-31 162.5v1041q-13 24 -58 44t-105 20q-113 0 -163 -41t-50 -141v-126h214v-122h-214v-877h-141v877h-147z" />
<glyph horiz-adv-x="0" />
<glyph horiz-adv-x="682" />
<glyph unicode=" "  horiz-adv-x="553" />
<glyph unicode="&#x09;" horiz-adv-x="553" />
<glyph unicode="&#xa0;" horiz-adv-x="553" />
<glyph unicode="!" horiz-adv-x="637" d="M220 0v194h196v-194h-196zM233 1435h171l-29 -1054h-114z" />
<glyph unicode="&#x22;" horiz-adv-x="914" d="M239 984v429h134v-429h-134zM539 984v429h136v-429h-136z" />
<glyph unicode="#" horiz-adv-x="1376" d="M111 438v113h263l67 333h-248v110h271l95 440h120l-95 -437h321l92 437h120l-92 -439h240v-111h-262l-68 -333h248v-109h-272l-92 -442h-120l92 436h-320l-90 -436h-120l90 438h-240zM494 551h321l66 333h-319z" />
<glyph unicode="$" horiz-adv-x="1121" d="M86 367l152 42q14 -134 109 -205.5t230 -71.5q130 0 206.5 63t76.5 187q0 72 -37.5 127t-97.5 91.5t-132.5 68t-145 66.5t-132.5 77t-97.5 108.5t-37.5 152.5q0 145 92 241t234 115v230h107v-227q235 -21 345 -222l-123 -82q-43 81 -114.5 123t-155.5 42 q-93 0 -159.5 -57t-66.5 -148q0 -68 37.5 -120t97.5 -86.5t132.5 -65.5t145 -66.5t132.5 -79.5t97.5 -114.5t37.5 -162.5q0 -176 -114.5 -288t-291.5 -120v-231h-107v234q-161 17 -278 116t-142 263z" />
<glyph unicode="%" horiz-adv-x="1586" d="M135 1118q0 54 12.5 106.5t39 101.5t76 79.5t114.5 30.5q81 0 139 -48.5t83.5 -118.5t25.5 -151q0 -80 -24.5 -149t-81.5 -117t-136 -48q-55 0 -98.5 20.5t-71 52.5t-45.5 74.5t-25.5 84t-7.5 82.5zM240 1118q0 -53 13.5 -99.5t46.5 -80.5t81 -34q66 0 99.5 65.5 t33.5 150.5q0 53 -13 99.5t-45.5 80.5t-78.5 34q-68 0 -102.5 -65t-34.5 -151zM344 2l753 1405h132l-753 -1405h-132zM962 316q0 53 12.5 105t39 101t76 79.5t115.5 30.5q61 0 109.5 -27.5t78 -73.5t45 -101.5t15.5 -114.5t-15 -113.5t-43.5 -99.5t-76 -72t-107.5 -27 q-68 0 -118.5 30t-77.5 78.5t-40 100t-13 104.5zM1068 316q0 -53 13 -99t46 -80t82 -34q45 0 76.5 34.5t44.5 81.5t13 98q0 54 -13 100t-45.5 79.5t-79.5 33.5q-68 0 -102.5 -64t-34.5 -150z" />
<glyph unicode="&#x26;" horiz-adv-x="1389" d="M130 318q0 187 253 375q64 49 110 72q-9 2 -39.5 33t-68 77.5t-66.5 114.5t-29 132q0 140 100 224t242 84q134 0 225.5 -88t91.5 -219q0 -57 -28.5 -117t-67 -103.5t-82.5 -81.5t-69.5 -55.5t-33.5 -21.5l293 -347q23 40 41.5 113.5t25.5 127.5l7 53l133 -14 q0 -11 -9 -68t-38 -156.5t-70 -162.5l227 -260l-100 -84l-197 231q-96 -105 -205.5 -151.5t-241.5 -46.5q-178 0 -291 86.5t-113 252.5zM261 321q0 -75 41 -123.5t100 -67t134 -18.5q218 0 359 165l-333 388q-1 -1 -16 -11l-43.5 -29t-54.5 -38q-187 -145 -187 -266z M421 1120q0 -45 26 -99t57 -92.5t57 -70t27 -36.5q0 1 41 31t84.5 66.5t80.5 93.5t37 109q0 76 -59 128t-138 52q-85 0 -149 -49t-64 -133z" />
<glyph unicode="'" horiz-adv-x="612" d="M239 1013v429h134v-429h-134z" />
<glyph unicode="(" horiz-adv-x="567" d="M131 705q0 199 60 398t177 339h129q-119 -156 -181 -346.5t-62 -393.5q0 -200 61 -389.5t180 -344.5h-124q-108 119 -174 336t-66 401z" />
<glyph unicode=")" horiz-adv-x="569" d="M71 1442h128q118 -138 178 -333t60 -402q0 -188 -66 -405.5t-173 -333.5h-125q118 156 180 348.5t62 387.5q0 192 -65 389t-179 349z" />
<glyph unicode="*" horiz-adv-x="878" d="M147 1156l35 112l230 -100l-30 245h113l-31 -245l231 100l36 -112l-250 -41l174 -197l-94 -68l-124 232l-122 -232l-92 68l173 197z" />
<glyph unicode="+" horiz-adv-x="1275" d="M124 569v113h456v461h114v-461h457v-113h-457v-463h-114v463h-456z" />
<glyph unicode="," horiz-adv-x="630" d="M188 -225l102 489h194l-203 -489h-93z" />
<glyph unicode="-" horiz-adv-x="838" d="M163 621v114h513v-114h-513z" />
<glyph unicode="." horiz-adv-x="668" d="M235 0v194h198v-194h-198z" />
<glyph unicode="/" horiz-adv-x="937" d="M16 -430l754 1946h152l-753 -1946h-153z" />
<glyph unicode="0" d="M68 707q0 101 16 199t54.5 195t95.5 170.5t146.5 119t199.5 45.5q102 0 188 -41t147 -111t104 -163.5t63.5 -199.5t20.5 -218q0 -139 -32.5 -267t-94.5 -231t-161 -164t-221 -61q-114 0 -205.5 45.5t-150 119t-98 170.5t-56 194.5t-16.5 197.5zM223 707q0 -79 11 -156 t37.5 -155.5t67 -137.5t105 -96.5t144.5 -37.5q76 0 137.5 38t99.5 98.5t64 139.5t36.5 155.5t10.5 153.5q0 65 -8 129.5t-24 130.5t-45 122.5t-66.5 100.5t-92.5 69.5t-120 25.5q-78 0 -141 -37t-102.5 -95.5t-65.5 -136.5t-37 -155t-11 -156z" />
<glyph unicode="1" d="M252 1081v130h172q82 0 128.5 49t46.5 126v27h144v-1413h-158v1081h-333z" />
<glyph unicode="2" d="M94 0v142q276 176 473 380q134 143 201 259.5t67 242.5q0 128 -66.5 197.5t-177.5 69.5q-129 0 -203 -91.5t-82 -249.5l-156 15q0 219 118 343t317 124q191 0 303.5 -110.5t112.5 -292.5q0 -153 -83 -295t-252 -311q-29 -29 -56 -55t-52.5 -49t-44.5 -39.5t-43 -35 t-35.5 -27.5t-35.5 -25.5t-29.5 -20t-30.5 -20t-27 -17.5h758v-134h-976z" />
<glyph unicode="3" d="M97 399l145 14q0 -92 47 -160t121 -101.5t163 -33.5q86 0 160 31t122.5 98t48.5 158q0 133 -89.5 204t-222.5 71h-96v140h96q106 0 170 61t64 170q0 111 -74.5 176.5t-182.5 65.5q-111 0 -186 -67.5t-76 -178.5l-143 16q0 171 115 271t290 100q111 0 202 -42.5 t146.5 -127t55.5 -196.5q0 -97 -42.5 -177.5t-123.5 -129.5q118 -41 178 -136t64 -223q0 -136 -65 -233t-171 -143t-240 -46q-100 0 -185.5 26.5t-150.5 77t-102.5 131.5t-37.5 184z" />
<glyph unicode="4" d="M69 381v90l666 942h141v-897h225v-135h-225v-381h-155v381h-652zM256 516h465v657z" />
<glyph unicode="5" d="M116 372l141 47q12 -58 33 -107t56.5 -96t94 -74.5t133.5 -27.5q76 0 137 30t98.5 80.5t57 111.5t19.5 126q0 137 -78.5 234t-220.5 97q-89 0 -165 -41.5t-122 -114.5l-136 64l124 712h698v-138h-578l-75 -456q103 104 274 104q129 0 231.5 -63.5t156.5 -168.5t54 -229 q0 -129 -60 -239.5t-169 -176.5t-243 -66q-176 0 -300 110.5t-161 281.5z" />
<glyph unicode="6" d="M121 449q0 133 67 245l413 719h173l-312 -525q65 13 126 13q196 0 331 -128t135 -321q0 -125 -59 -232.5t-167 -173.5t-241 -66q-128 0 -235 63t-169 170.5t-62 235.5zM272 450q0 -135 92.5 -231.5t223.5 -96.5t223 96.5t92 231.5q0 136 -92 232t-223 96q-132 0 -224 -96 t-92 -232z" />
<glyph unicode="7" d="M114 1275v138h939v-78l-608 -1335h-174l600 1275h-757z" />
<glyph unicode="8" d="M111 390q0 128 64.5 224t184.5 148q-84 48 -130.5 129t-46.5 179q0 167 116.5 265.5t287.5 98.5q170 0 286 -98.5t116 -265.5q0 -98 -45.5 -178.5t-128.5 -129.5q117 -50 181 -147t64 -225q0 -101 -38 -180.5t-104 -129t-150.5 -75t-182.5 -25.5q-97 0 -182 26 t-150.5 75.5t-103.5 129t-38 179.5zM264 403q0 -138 94.5 -214.5t226.5 -76.5q133 0 226 76.5t93 214.5q0 135 -92 212t-227 77q-137 0 -229 -77t-92 -212zM338 1065q0 -115 70 -184.5t183 -69.5q106 0 178.5 65.5t72.5 174.5q0 114 -73 180t-180 66q-100 0 -175.5 -63 t-75.5 -169z" />
<glyph unicode="9" d="M117 961q0 125 59 233t167.5 174t242.5 66q127 0 234 -63t169 -171t62 -236q0 -132 -66 -245l-414 -719h-170l308 526q-59 -14 -125 -14q-196 0 -331.5 128.5t-135.5 320.5zM268 963q0 -136 92.5 -232t223.5 -96t223 96t92 232q0 135 -92 231.5t-223 96.5t-223.5 -96.5 t-92.5 -231.5z" />
<glyph unicode=":" horiz-adv-x="677" d="M241 0v194h196v-194h-196zM241 761v193h196v-193h-196z" />
<glyph unicode=";" horiz-adv-x="658" d="M201 -225l102 489h194l-203 -489h-93zM279 761v193h195v-193h-195z" />
<glyph unicode="&#x3c;" horiz-adv-x="1222" d="M109 674l898 504l68 -118l-717 -386l717 -387l-68 -117z" />
<glyph unicode="=" horiz-adv-x="1269" d="M255 433v136h759v-136h-759zM255 775v136h759v-136h-759z" />
<glyph unicode="&#x3e;" horiz-adv-x="1221" d="M147 287l717 387l-717 386l68 118l898 -504l-898 -504z" />
<glyph unicode="?" horiz-adv-x="1030" d="M97 1062q1 168 117 270t285 102q116 0 209 -40.5t150.5 -124.5t57.5 -199q0 -69 -19 -122t-48.5 -85.5t-66 -57.5t-73 -44.5t-66 -39.5t-48.5 -49.5t-19 -68.5v-227h-136v229q0 59 18.5 102.5t47.5 69t65 46t71.5 40.5t64.5 45t47.5 66.5t18.5 98.5q0 113 -74 170.5 t-192 57.5q-112 0 -188 -63.5t-77 -175.5h-145zM413 0v194h196v-194h-196z" />
<glyph unicode="@" horiz-adv-x="2058" d="M144 515q0 192 65 360.5t180.5 291.5t284 194t366.5 71q193 0 357.5 -67.5t277.5 -184t176.5 -277t63.5 -343.5q0 -118 -26.5 -225t-79 -195t-140.5 -140.5t-201 -52.5q-136 0 -208.5 73.5t-57.5 199.5q-57 -72 -142 -113t-175 -41q-102 0 -174 52.5t-105.5 135.5 t-33.5 187q0 101 32.5 205t89.5 192t146.5 144t193.5 56q103 0 176 -51.5t93 -137.5l28 140h149q-12 -62 -52 -223.5t-67.5 -298.5t-27.5 -223q0 -79 28.5 -111.5t98.5 -32.5q87 0 150.5 42.5t97 113.5t49 147t15.5 159q0 154 -52.5 288.5t-146.5 232.5t-232 154t-301 56 q-224 0 -397 -103t-264.5 -278.5t-91.5 -392.5q0 -169 58.5 -306.5t159 -226.5t233.5 -137t284 -48q128 0 248 39l53 -137q-147 -51 -303 -51q-180 0 -339 59.5t-278.5 168t-189 273t-69.5 362.5zM709 438q0 -105 48 -164t146 -59q67 0 125 29t98.5 76t69.5 106.5 t42.5 121.5t13.5 120q0 105 -47 163t-145 58q-83 0 -152.5 -43.5t-111 -111.5t-64.5 -145t-23 -151z" />
<glyph unicode="A" horiz-adv-x="1306" d="M63 0l531 1413h122l527 -1413h-170l-108 307h-621l-108 -307h-173zM397 452h514l-255 728z" />
<glyph unicode="B" horiz-adv-x="1249" d="M215 0v1413h391q71 0 134.5 -11.5t122.5 -38t102 -66t68.5 -99.5t25.5 -135q0 -208 -182 -315q251 -113 251 -371q0 -82 -25.5 -147.5t-68 -107.5t-101.5 -70t-121.5 -40t-132.5 -12h-464zM371 147h312q289 0 289 239q0 73 -23 126t-64.5 82t-90 42t-108.5 13h-315v-502z M371 791h235q128 0 208 62.5t80 188.5q0 229 -285 229h-238v-480z" />
<glyph unicode="C" horiz-adv-x="1430" d="M129 707q0 120 23.5 227t74 199.5t124 159.5t179 105t232.5 38q197 0 345 -96.5t230 -279.5l-146 -63q-21 77 -63 134.5t-100 91.5t-124.5 50t-143.5 16q-121 0 -214.5 -46.5t-149 -127.5t-83 -181.5t-27.5 -216.5q0 -97 17 -183t54 -161.5t92 -130t135.5 -85.5 t179.5 -31q320 0 429 295l146 -63q-80 -182 -229 -280t-346 -98q-127 0 -232.5 38t-179.5 104.5t-124.5 158.5t-74.5 199t-24 227z" />
<glyph unicode="D" horiz-adv-x="1412" d="M215 0v1413h360q345 0 529 -184.5t184 -532.5q0 -334 -186.5 -515t-528.5 -181h-358zM374 145h175q126 0 230 33.5t183 101t123 176.5t44 251q0 276 -140 420t-418 144h-197v-1126z" />
<glyph unicode="E" horiz-adv-x="1245" d="M215 0v1413h915v-137h-756v-502h657v-133h-657v-496h756v-145h-915z" />
<glyph unicode="F" horiz-adv-x="1202" d="M215 0v1413h906v-137h-747v-502h659v-133h-659v-641h-159z" />
<glyph unicode="G" horiz-adv-x="1509" d="M125 707q0 119 24 226.5t75 200t124.5 159.5t178 105t230.5 38q199 0 346 -96.5t228 -279.5l-145 -63q-64 141 -173.5 215.5t-257.5 74.5q-98 0 -177.5 -30.5t-134 -83.5t-91.5 -125.5t-54 -155.5t-17 -175q0 -122 27.5 -226t83.5 -186.5t150 -129.5t217 -47 q188 0 315 123t131 339h-323v125h473v-715h-132l-2 258q-46 -117 -168.5 -197.5t-293.5 -80.5q-127 0 -232.5 38t-179 104.5t-124 158.5t-74.5 199t-24 227z" />
<glyph unicode="H" horiz-adv-x="1461" d="M215 0v1413h159v-639h713v639h159v-1413h-159v641h-713v-641h-159z" />
<glyph unicode="I" horiz-adv-x="589" d="M215 0v1413h159v-1413h-159z" />
<glyph unicode="J" horiz-adv-x="1127" d="M77 396l154 21q4 -58 21.5 -109t49 -94.5t83.5 -68.5t118 -25q67 0 116.5 19t79 51t47.5 80.5t24.5 99t6.5 115.5v791h-532v137h691v-911q0 -522 -433 -522q-187 0 -300 118t-126 298z" />
<glyph unicode="K" horiz-adv-x="1460" d="M215 0v1413h159v-829l781 829h204l-534 -557l568 -856h-191l-482 747l-346 -357v-390h-159z" />
<glyph unicode="L" horiz-adv-x="1043" d="M215 0v1413h159v-1268h604v-145h-763z" />
<glyph unicode="M" horiz-adv-x="1769" d="M215 0v1413h258l408 -1135l414 1135h259v-1413h-157v1276l-426 -1153h-174l-423 1153v-1276h-159z" />
<glyph unicode="N" horiz-adv-x="1425" d="M215 0v1413h222l616 -1228v1228h157v-1413h-227l-609 1230v-1230h-159z" />
<glyph unicode="O" horiz-adv-x="1525" d="M128 707q0 119 24 226t75 199t125 159t178.5 105t230.5 38q157 0 280.5 -58t200 -159t116 -231t39.5 -279q0 -150 -39.5 -279.5t-116 -230.5t-200 -159t-280.5 -58q-126 0 -230.5 38t-178.5 105t-125 159t-75 199t-24 226zM283 707q0 -93 16.5 -177t54 -158.5t92 -128.5 t135.5 -85.5t180 -31.5q100 0 182 31.5t137 85.5t92 128.5t54 158.5t17 177t-17 176.5t-54 158t-92 128.5t-137 85.5t-182 31.5q-99 0 -180 -31.5t-135.5 -85.5t-92 -128.5t-54 -158t-16.5 -176.5z" />
<glyph unicode="P" horiz-adv-x="1156" d="M215 0v1413h397q207 0 329.5 -104.5t122.5 -285.5q0 -184 -121.5 -284.5t-330.5 -100.5h-238v-638h-159zM374 779h238q143 0 219 61.5t76 182.5q0 118 -77 183.5t-218 65.5h-238v-493z" />
<glyph unicode="Q" horiz-adv-x="1555" d="M128 707q0 119 24 226t75 199t125 159t178.5 105t230.5 38q157 0 280.5 -58t200 -159t116 -231t39.5 -280q0 -318 -156 -510l195 -197l-95 -96l-193 199q-148 -122 -387 -122q-126 0 -230.5 38t-178.5 105t-125 159t-75 199t-24 226zM287 707q0 -118 27 -219.5t82 -184.5 t148.5 -131t216.5 -48q165 0 277 82l-199 204l92 97l201 -203q106 156 106 403q0 93 -16.5 176.5t-53 158.5t-90.5 129.5t-135.5 86t-181.5 31.5q-123 0 -216.5 -48t-148.5 -130.5t-82 -184.5t-27 -219z" />
<glyph unicode="R" horiz-adv-x="1227" d="M215 -2v1413h404q192 0 318 -106.5t126 -285.5q0 -141 -82 -239t-219 -127l383 -655h-185l-353 634h-233v-634h-159zM376 778h269q119 6 191 68.5t72 172.5q0 118 -79.5 185t-207.5 67h-245v-493z" />
<glyph unicode="S" horiz-adv-x="1117" d="M86 362l149 44q14 -135 110.5 -207t229.5 -72q131 0 208 64t77 189q0 74 -37.5 131t-97.5 93.5t-132.5 68t-145 66t-132.5 76t-97.5 108t-37.5 153.5q0 159 111 258.5t272 99.5q264 0 393 -220l-120 -80q-41 81 -114 122t-160 41q-93 0 -160 -57t-67 -150q0 -62 29 -111 t77 -80.5t109 -62t125 -55t125 -60.5t109 -77t77 -106t29 -147q0 -184 -124.5 -295.5t-316.5 -111.5q-183 0 -321 98.5t-167 279.5z" />
<glyph unicode="T" horiz-adv-x="1247" d="M66 1282v131h1114v-131h-476v-1282h-161v1282h-477z" />
<glyph unicode="U" horiz-adv-x="1356" d="M186 518v895h158v-850q0 -433 333 -433q336 0 336 433v850h159v-885q0 -90 -17.5 -170t-56 -150t-95.5 -120t-140 -79t-186 -29q-102 0 -185.5 29t-139.5 78.5t-94 118.5t-55 147t-17 165z" />
<glyph unicode="V" horiz-adv-x="1334" d="M68 1413h166l435 -1203l434 1203h163l-529 -1413h-137z" />
<glyph unicode="W" horiz-adv-x="1983" d="M79 1413h162l336 -1219l351 1137h128l352 -1137l334 1219h163l-398 -1413h-174l-338 1076l-345 -1076h-174z" />
<glyph unicode="X" horiz-adv-x="1270" d="M77 0l468 707l-466 706h188l369 -586l370 586h185l-463 -706l465 -707h-185l-374 576l-369 -576h-188z" />
<glyph unicode="Y" horiz-adv-x="1341" d="M57 1413h184l430 -702l430 702h183l-536 -860v-553h-154v553z" />
<glyph unicode="Z" horiz-adv-x="1283" d="M92 0v124l895 1152h-850v137h1043v-130l-891 -1139h891v-144h-1088z" />
<glyph unicode="[" horiz-adv-x="641" d="M207 -93v1597h362v-91h-236v-1413h236v-93h-362z" />
<glyph unicode="\" horiz-adv-x="937" d="M16 1516h153l753 -1946h-152z" />
<glyph unicode="]" horiz-adv-x="641" d="M72 0h236v1413h-236v91h362v-1597h-362v93z" />
<glyph unicode="^" horiz-adv-x="984" d="M129 839l362 589l366 -589h-158l-208 334l-204 -334h-158z" />
<glyph unicode="_" horiz-adv-x="1242" d="M231 0h780v-114h-780v114z" />
<glyph unicode="`" horiz-adv-x="539" d="M59 1413h193l217 -291h-152z" />
<glyph unicode="a" horiz-adv-x="1033" d="M79 278q0 293 442 293h229q0 315 -245 315q-175 0 -277 -147l-109 85q138 192 377 192q187 0 289 -108.5t102 -294.5v-613h-127l-3 193q-52 -108 -145 -160.5t-206 -52.5q-144 0 -235.5 80t-91.5 218zM234 274q0 -85 52.5 -126.5t136.5 -41.5q97 0 174 55t115 134.5 t38 162.5h-214q-152 0 -227 -43.5t-75 -140.5z" />
<glyph unicode="b" horiz-adv-x="1133" d="M172 0v1413h149v-550q109 159 310 159q126 0 219 -72t138 -188.5t45 -261.5t-45 -261.5t-137.5 -187.5t-218.5 -71q-205 0 -311 156v-136h-149zM308 500q0 -63 10 -119t32.5 -106t55 -86t80.5 -57t107 -21q73 0 130 32t91.5 86.5t52 123.5t17.5 147t-17.5 146.5t-52 124 t-91.5 87.5t-130 32t-129 -32t-89.5 -87.5t-50 -124t-16.5 -146.5z" />
<glyph unicode="c" horiz-adv-x="981" d="M95 498q0 102 27.5 194t80 165t136.5 116t188 43q134 0 235 -69.5t155 -192.5l-142 -60q-22 90 -89.5 142t-158.5 52q-60 0 -108.5 -23.5t-79.5 -62t-52 -90t-30 -105t-9 -109.5q0 -73 15 -139t46 -124.5t87 -93t131 -34.5q91 0 158 52.5t90 141.5l130 -56 q-45 -125 -143 -195t-233 -70q-105 0 -189 42.5t-136.5 115t-80.5 165t-28 195.5z" />
<glyph unicode="d" horiz-adv-x="1134" d="M100 500q0 145 46 261.5t138 187.5t216 71q204 0 312 -157v550h150v-1413h-146l-3 139q-109 -159 -312 -159q-124 0 -216.5 71t-138.5 188t-46 261zM252 500q0 -165 72.5 -274.5t214.5 -109.5q98 0 164 54.5t94 138.5t28 191q0 106 -28 189.5t-94 138t-164 54.5 q-73 0 -129.5 -31t-90 -84.5t-50.5 -121t-17 -145.5z" />
<glyph unicode="e" horiz-adv-x="1038" d="M91 494q0 138 47 253.5t147 190t238 74.5q95 0 169.5 -29t122 -77t78.5 -117t43.5 -143t12.5 -159l-5 -38h-696v-7q0 -136 74 -228q76 -94 216 -94q95 0 161 22.5t122 81.5l102 -82q-82 -82 -172 -118t-211 -36q-110 0 -197 40.5t-141.5 111t-82.5 160.5t-28 194z M248 571h558q1 141 -71 224.5t-212 83.5q-129 0 -199 -86.5t-76 -221.5z" />
<glyph unicode="f" horiz-adv-x="686" d="M35 877v120h183v186q0 119 77 185t195 66q84 0 162 -38l-36 -119q-41 27 -105 27q-60 0 -102.5 -34.5t-42.5 -90.5v-180h288v-122h-288v-877h-149v877h-182z" />
<glyph unicode="g" horiz-adv-x="999" d="M106 -118q0 17 3 38l144 145q-126 71 -126 206q0 102 72 164q-83 94 -83 228q0 156 106.5 252.5t266.5 96.5q156 0 258 -92l151 136l84 -106l-161 -126q38 -73 38 -163q0 -157 -105 -250.5t-265 -93.5q-102 0 -188 42q-43 -33 -43 -78q0 -37 21 -64t62 -44t82.5 -26.5 t101.5 -17.5q56 -7 88 -12t82 -16t79 -23.5t64 -34t54 -47.5t32 -64t13 -85q0 -99 -57 -170t-145.5 -103t-197.5 -32q-192 0 -311.5 97t-119.5 243zM244 -121q2 -81 84.5 -142.5t221.5 -61.5q106 0 180 41.5t74 119.5q0 23 -8 42.5t-18.5 33t-32.5 24.5t-39.5 18t-50 14 t-53 10t-60 9t-60.5 10q-82 14 -120 26zM267 665q0 -101 60 -162.5t160 -61.5q101 0 161.5 62t60.5 162q0 96 -61.5 162.5t-160.5 66.5t-159.5 -67.5t-60.5 -161.5z" />
<glyph unicode="h" horiz-adv-x="1128" d="M172 0v1413h147v-578q50 82 139 131.5t186 49.5q87 0 153 -32t105.5 -88.5t58.5 -126.5t19 -153v-616h-151v592q0 56 -9 102.5t-31 89t-64.5 67t-102.5 24.5q-127 0 -215 -97t-88 -231v-547h-147z" />
<glyph unicode="i" horiz-adv-x="492" d="M161 1221v192h172v-192h-172zM170 0v999h152v-999h-152z" />
<glyph unicode="j" horiz-adv-x="497" d="M-83 -407l32 112q57 -17 116 -17q57 0 82 38.5t25 96.5v1176h153v-1154q0 -130 -63.5 -206.5t-193.5 -76.5q-73 0 -151 31zM161 1225v193h174v-193h-174z" />
<glyph unicode="k" horiz-adv-x="1053" d="M172 0v1413h150v-952l446 538h186l-325 -367l391 -632h-177l-306 530l-215 -237v-293h-150z" />
<glyph unicode="l" horiz-adv-x="524" d="M169 202v1211h150v-1246q0 -6 2.5 -16.5t14.5 -25.5t33 -15q41 0 96 10v-120q-64 -20 -134 -20q-44 0 -75 12.5t-48 30.5t-26 49.5t-11 59t-2 70.5z" />
<glyph unicode="m" horiz-adv-x="1702" d="M170 0v999h151v-171q31 85 104.5 137.5t165.5 52.5q111 0 191 -51t116 -152q47 98 126 149.5t184 51.5q90 0 158.5 -32t109 -89.5t60.5 -129.5t20 -158v-607h-151v592q0 56 -10 105t-32.5 94.5t-66.5 72t-106 26.5q-117 0 -185 -94.5t-68 -225.5v-570h-151v596 q0 45 -5 84t-19.5 79t-37.5 68t-61 45.5t-88 17.5q-118 0 -186 -94.5t-68 -225.5v-570h-151z" />
<glyph unicode="n" horiz-adv-x="1125" d="M170 0v999h149v-157q48 79 133 126.5t181 47.5q90 0 158 -32t108 -89.5t59 -129.5t19 -158v-607h-150v592q0 282 -212 282q-120 0 -208 -91.5t-88 -214.5v-568h-149z" />
<glyph unicode="o" horiz-adv-x="1125" d="M89 496q0 217 132.5 366.5t340.5 149.5q136 0 245.5 -69.5t169 -187.5t59.5 -259q0 -142 -59.5 -259.5t-169 -187t-245.5 -69.5q-208 0 -340.5 149t-132.5 367zM256 496q0 -78 17 -145t52.5 -121.5t96 -86t140.5 -31.5q81 0 141.5 31.5t96 86t52.5 121.5t17 145 t-17 144.5t-52.5 121.5t-96 86t-141.5 31q-64 0 -116.5 -21t-87 -56.5t-58 -84.5t-34 -104t-10.5 -117z" />
<glyph unicode="p" horiz-adv-x="1134" d="M172 -438v1437h150v-136q106 157 310 157q126 0 219 -71t138 -187.5t45 -261.5t-45 -261.5t-138 -187.5t-219 -71q-204 0 -310 156v-574h-150zM307 500q0 -62 10.5 -118.5t33 -106.5t55.5 -86t80.5 -57t105.5 -21q74 0 131.5 31.5t92 86.5t52 123.5t17.5 147.5 q0 106 -29.5 191t-97.5 141t-166 56q-95 0 -161 -56t-95 -141.5t-29 -190.5z" />
<glyph unicode="q" horiz-adv-x="1133" d="M98 500q0 145 46 261.5t138.5 187.5t217.5 71q201 0 311 -157v136h150v-1437h-150v574q-114 -156 -312 -156q-124 0 -216.5 71t-138.5 188t-46 261zM251 500q0 -79 17 -147.5t50.5 -123.5t89.5 -86.5t129 -31.5q74 0 130.5 31.5t89.5 86.5t49.5 123.5t16.5 147.5 q0 78 -16.5 146t-49.5 123t-89.5 86.5t-130.5 31.5q-73 0 -129 -31.5t-89.5 -86.5t-50.5 -123t-17 -146z" />
<glyph unicode="r" horiz-adv-x="802" d="M170 0v999h152v-194q24 94 108 151.5t176 57.5q42 0 90.5 -12t78.5 -34l-52 -127q-50 45 -127 45q-88 0 -152 -63.5t-94 -166t-30 -231.5v-425h-150z" />
<glyph unicode="s" horiz-adv-x="876" d="M79 227l125 65q27 -79 93.5 -129t157.5 -50q80 0 137.5 40t57.5 119q0 47 -23 80t-61 50.5t-86.5 33.5t-98.5 26.5t-98.5 31t-86.5 46t-61 72.5t-23 110q0 133 92 212.5t226 79.5q110 0 194.5 -54.5t132.5 -138.5l-118 -68q-76 134 -215 134q-80 0 -127.5 -40t-47.5 -102 q0 -41 23.5 -70t61.5 -44.5t87 -30t100.5 -25.5t100.5 -33t87 -50.5t61.5 -79t23.5 -118.5q0 -101 -50.5 -174t-127 -106.5t-167.5 -33.5q-134 0 -234.5 72t-135.5 175z" />
<glyph unicode="t" horiz-adv-x="675" d="M45 873v126h157v225l149 140v-365h256v-126h-256v-609q0 -79 35.5 -120t93.5 -41q48 0 100 25v-128q-49 -20 -134 -20q-244 0 -244 285v608h-157z" />
<glyph unicode="u" horiz-adv-x="1121" d="M146 407v592h149v-598q0 -56 9.5 -104t31.5 -93.5t65 -71.5t104 -26q122 0 210.5 96t88.5 235v562h148v-999h-148v169q-35 -74 -120.5 -133t-193.5 -59q-90 0 -157.5 34t-107.5 94.5t-59.5 136t-19.5 165.5z" />
<glyph unicode="v" horiz-adv-x="957" d="M39 999h163l276 -805l279 805h159l-372 -999h-132z" />
<glyph unicode="w" horiz-adv-x="1427" d="M53 999h158l205 -802l229 802h137l229 -800l203 800h159l-280 -999h-145l-233 811l-237 -812h-146z" />
<glyph unicode="x" horiz-adv-x="927" d="M50 0l337 504l-337 495h182l233 -370l235 370h177l-332 -495l332 -504h-177l-235 378l-233 -378h-182z" />
<glyph unicode="y" horiz-adv-x="985" d="M40 999h165l293 -817l284 817h163l-535 -1429h-157l171 435z" />
<glyph unicode="z" horiz-adv-x="936" d="M70 0v113l611 764h-583v122h757v-123l-600 -748h600v-128h-785z" />
<glyph unicode="{" horiz-adv-x="604" d="M88 594v115q131 35 131 153v428q0 106 48.5 160t160.5 54h53q39 0 48 -1v-90q-30 6 -65 6q-109 0 -109 -63v-506q0 -72 -43 -119.5t-136 -85.5q89 -31 134 -70t45 -98v-364q0 -149 133 -149q18 0 41 7v-90q-17 -1 -50 -1h-71q-93 0 -156 82q-33 44 -33 144v367 q0 74 -131 121z" />
<glyph unicode="|" horiz-adv-x="628" d="M259 -512v2046h110v-2046h-110z" />
<glyph unicode="}" horiz-adv-x="604" d="M75 -29q26 -7 41 -7q133 0 133 149v364q0 58 47 98t132 70q-98 39 -138.5 85.5t-40.5 119.5v506q0 63 -110 63q-33 0 -64 -6v90q8 1 49 1h51q113 0 161.5 -54.5t48.5 -159.5v-428q0 -119 131 -153v-115q-131 -47 -131 -121v-367q0 -107 -30 -146q-64 -80 -157 -80h-72 q-35 0 -51 1v90z" />
<glyph unicode="~" horiz-adv-x="1167" d="M213 406q0 109 49.5 177t143.5 68q54 0 98 -17.5t73 -42t55 -49t55 -42t61 -17.5q55 0 77.5 41.5t22.5 120.5h108q0 -127 -55.5 -196.5t-158.5 -69.5q-45 0 -85.5 18t-70 43t-57 50.5t-58.5 43.5t-63 18q-99 0 -95 -146h-100z" />
<glyph unicode="&#xa1;" horiz-adv-x="635" d="M219 806v193h196v-193h-196zM231 -436l29 1055h114l28 -1055h-171z" />
<glyph unicode="&#xa2;" horiz-adv-x="1144" d="M170 498q0 130 40.5 239t128.5 185t210 91v187h110v-187q114 -14 202 -81.5t136 -177.5l-148 -61q-22 84 -88.5 133.5t-153.5 49.5q-74 0 -130.5 -33.5t-88 -89t-46.5 -120t-15 -135.5q0 -56 9 -108.5t30 -102t52 -86.5t79.5 -59t109.5 -22q87 0 153.5 49.5t88.5 132.5 l136 -57q-41 -114 -126 -182.5t-200 -79.5v-188h-110v189q-122 14 -209.5 89.5t-128.5 184.5t-41 240z" />
<glyph unicode="&#xa3;" horiz-adv-x="1244" d="M163 0v118q10 7 26.5 20.5t58.5 53t74.5 79t59 92.5t26.5 99q0 34 -6.5 78t-13.5 70l-6 27h-216v133h183q-48 118 -48 245q0 114 44.5 207.5t136 152t215.5 58.5q131 0 228 -80t143 -205l-125 -47q-33 91 -97.5 145t-148.5 54q-122 0 -192.5 -78.5t-70.5 -205.5 q0 -54 12 -115.5t24 -96.5l13 -34h473v-133h-439q21 -92 21 -173q0 -56 -17.5 -110.5t-43 -93t-50.5 -68.5t-43 -44l-17 -15h812v-133h-1016z" />
<glyph unicode="&#xa4;" horiz-adv-x="1131" d="M103 264l105 103q-89 116 -89.5 264.5t89.5 263.5l-103 100l93 99l103 -106q117 90 265.5 91t265.5 -89l103 102l94 -93l-102 -102q89 -116 89 -265.5t-89 -266.5l102 -101l-92 -97l-105 105q-117 -90 -266.5 -90t-266.5 90l-103 -105zM249 629.5q-1 -131.5 89 -221.5 q95 -95 226.5 -95t226.5 95q92 92 91.5 223t-93.5 223q-95 93 -224.5 92t-224.5 -94q-90 -91 -91 -222.5z" />
<glyph unicode="&#xa5;" horiz-adv-x="1316" d="M57 1413h167l435 -701l434 701h166l-475 -764h246v-117h-301v-119h301v-117h-301v-296h-143v296h-299v117h299v119h-299v116h244z" />
<glyph unicode="&#xa6;" horiz-adv-x="625" d="M259 -307v727h107v-727h-107zM259 731v744h107v-744h-107z" />
<glyph unicode="&#xa7;" horiz-adv-x="1130" d="M162 265l139 47q48 -199 273 -199q45 0 83.5 7.5t74.5 24.5t56.5 51t20.5 82q0 50 -33 82t-85.5 48.5t-116.5 29t-128 30.5t-116.5 45.5t-85.5 81.5t-33 132q0 128 102 217q-47 33 -73.5 84.5t-26.5 110.5q0 69 29.5 126t78.5 93t111 56t129 20q130 0 226 -63.5 t143 -184.5l-137 -46q-47 164 -235 164q-87 0 -150 -44.5t-63 -124.5q0 -41 25.5 -70t67.5 -43t96 -27.5t110 -23t110 -31t96 -50t67.5 -80.5t25.5 -122q0 -133 -96 -213q96 -71 96 -199q0 -76 -31.5 -134t-85 -92t-118 -51t-137.5 -17q-152 0 -261 71.5t-148 211.5z M345 730q0 -36 19.5 -65t48 -46.5t71 -32.5t77 -22.5t77.5 -17t62 -14.5q109 45 109 161q0 38 -19 68.5t-45 48.5t-68 33.5t-74 22.5t-77 16t-64 14q-55 -22 -86 -66.5t-31 -99.5z" />
<glyph unicode="&#xa8;" horiz-adv-x="835" d="M176 1176v175h169v-175h-169zM513 1176v175h168v-175h-168z" />
<glyph unicode="&#xa9;" horiz-adv-x="1760" d="M128 707q0 154 59.5 294t160 241.5t240 161.5t292.5 60t292 -60t240 -161.5t160.5 -241.5t59.5 -294t-59.5 -294.5t-160.5 -242t-240 -161.5t-292 -60t-292.5 60t-240 161.5t-160 242t-59.5 294.5zM246 707q0 -169 86.5 -316.5t233 -234.5t314.5 -87t314.5 87t232.5 234 t86 317q0 169 -86 316t-232.5 234t-314.5 87t-314.5 -87t-233 -234t-86.5 -316zM544 705q0 114 38 203.5t119.5 145t195.5 55.5q103 0 183.5 -49.5t122.5 -140.5l-108 -46q-60 117 -198 117q-117 0 -177.5 -82t-60.5 -203t59.5 -202.5t176.5 -81.5q65 0 117.5 30.5 t80.5 87.5l110 -47q-42 -93 -122.5 -142.5t-183.5 -49.5q-114 0 -195.5 55.5t-119.5 145.5t-38 204z" />
<glyph unicode="&#xaa;" horiz-adv-x="981" d="M177 920q0 107 70 158t190 51h213q-2 207 -174 207q-58 0 -106 -29.5t-75 -71.5l-91 58q53 73 119 107t157 34q132 0 204.5 -76t72.5 -206v-429h-97l-6 117q-46 -68 -105.5 -99.5t-142.5 -31.5q-96 0 -162.5 58.5t-66.5 152.5zM300 920q0 -48 41.5 -79t91.5 -31 q89 0 152.5 68.5t64.5 153.5h-203q-64 0 -105.5 -30t-41.5 -82z" />
<glyph unicode="&#xab;" horiz-adv-x="972" d="M70 512l370 325v-162l-194 -163l194 -165v-162zM433 512l371 325v-162l-195 -163l195 -165v-162z" />
<glyph unicode="&#xac;" horiz-adv-x="1292" d="M158 663v134h878v-506h-140v372h-738z" />
<glyph unicode="&#xad;" horiz-adv-x="982" d="M163 578v114h656v-114h-656z" />
<glyph unicode="&#xae;" horiz-adv-x="1760" d="M128 709q0 154 59.5 294t160 241.5t240 161.5t292.5 60t292 -60t240 -161.5t160.5 -241.5t59.5 -294t-59.5 -294.5t-160.5 -242t-240 -161.5t-292 -60t-292.5 60t-240 161.5t-160 242t-59.5 294.5zM238 709q0 -130 51.5 -249.5t138 -206.5t205 -138.5t247.5 -51.5 t247.5 51.5t204.5 138.5t137.5 206.5t51.5 249.5t-51.5 249t-137.5 206t-204.5 139t-247.5 52q-172 0 -320 -87.5t-235 -236.5t-87 -322zM632 304v795h301q132 0 197 -60t65 -172q0 -95 -46.5 -149t-119.5 -69l202 -345h-142l-177 333h-158v-333h-122zM743 747h190 q150 0 150 120q0 63 -36 92t-114 29h-190v-241z" />
<glyph unicode="&#xaf;" horiz-adv-x="870" d="M257 1183v125h541v-125h-541z" />
<glyph unicode="&#xb0;" horiz-adv-x="967" d="M190 1141q0 121 86 207t207 86q120 0 206 -86t86 -207t-86 -207t-206 -86q-121 0 -207 86t-86 207zM284 1141q0 -82 58.5 -141t140.5 -59q81 0 140 59t59 141t-59 140.5t-140 58.5q-82 0 -140.5 -58.5t-58.5 -140.5z" />
<glyph unicode="&#xb1;" horiz-adv-x="1326" d="M150 0h1026v-114h-1026v114zM150 569v113h456v461h114v-461h457v-113h-457v-463h-114v463h-456z" />
<glyph unicode="&#xb4;" horiz-adv-x="537" d="M75 1124l217 289h193l-276 -289h-134z" />
<glyph unicode="&#xb5;" horiz-adv-x="1304" d="M258 -266v1265h157v-596q0 -57 9.5 -104.5t31 -90t63.5 -66.5t101 -24q120 0 209 93.5t89 216.5v571h157v-999h-157v169q-36 -74 -122 -133t-191 -59q-104 0 -189 51l-22 -294h-136z" />
<glyph unicode="&#xb6;" horiz-adv-x="1358" d="M125 1018q0 120 65 212t166.5 137.5t220.5 45.5h136v-1659h-136v869q-119 0 -220.5 45.5t-166.5 137.5t-65 212zM945 -246v1659h136v-1659h-136z" />
<glyph unicode="&#xb7;" horiz-adv-x="651" d="M201 824q0 54 35.5 89t88.5 35t89 -35.5t36 -88.5q0 -52 -36.5 -88.5t-88.5 -36.5t-88 36.5t-36 88.5z" />
<glyph unicode="&#xb8;" horiz-adv-x="562" d="M82 -380l99 51q6 -29 30.5 -50.5t58.5 -21.5q44 0 71 28t27 68q0 51 -48 88t-138 37h-42l99 180h119l-68 -117q90 -4 138 -55t48 -125q0 -83 -58.5 -145t-153.5 -62q-62 0 -111.5 35.5t-70.5 88.5z" />
<glyph unicode="&#xba;" horiz-adv-x="950" d="M136 1073q0 151 95.5 256t244.5 105q147 0 242.5 -105t95.5 -256q0 -152 -95.5 -257t-242.5 -105q-149 0 -244.5 104.5t-95.5 257.5zM267 1073q0 -110 51.5 -181.5t157.5 -71.5q105 0 155.5 71.5t50.5 181.5t-51 181.5t-155 71.5q-106 0 -157.5 -71.5t-51.5 -181.5z" />
<glyph unicode="&#xbb;" horiz-adv-x="973" d="M167 185v162l193 165l-193 163v162l369 -325zM529 185v162l194 165l-194 163v162l371 -325z" />
<glyph unicode="&#xbf;" horiz-adv-x="1029" d="M114 -71q0 69 19 122.5t48.5 86t66 57.5t73 44.5t66 40t48.5 50t19 68.5v225h137v-227q0 -60 -18.5 -103.5t-48 -69.5t-65 -46.5t-71 -40.5t-65 -45t-48 -67t-18.5 -99q0 -112 74 -169.5t191 -57.5q114 0 189.5 65t76.5 178h145q-1 -114 -55.5 -200.5t-145.5 -130.5 t-203 -44q-179 0 -297 95.5t-118 267.5zM421 806v193h196v-193h-196z" />
<glyph unicode="&#xc0;" horiz-adv-x="1306" d="M63 0l531 1413h122l527 -1413h-170l-108 307h-621l-108 -307h-173zM324 1827h193l217 -291h-152zM397 452h514l-255 728z" />
<glyph unicode="&#xc1;" horiz-adv-x="1306" d="M63 0l531 1413h122l527 -1413h-170l-108 307h-621l-108 -307h-173zM397 452h514l-255 728zM558 1538l217 289h193l-276 -289h-134z" />
<glyph unicode="&#xc2;" horiz-adv-x="1306" d="M63 0l531 1413h122l527 -1413h-170l-108 307h-621l-108 -307h-173zM326 1512l328 355l329 -355h-165l-164 186l-162 -186h-166zM397 452h514l-255 728z" />
<glyph unicode="&#xc3;" horiz-adv-x="1306" d="M63 0l531 1413h122l527 -1413h-170l-108 307h-621l-108 -307h-173zM351 1580q0 114 44 182t124 68q41 0 74.5 -16.5t56 -40t41.5 -46.5t39.5 -39.5t42.5 -16.5q71 0 71 153h110q0 -128 -46.5 -196t-132.5 -68q-38 0 -70.5 16t-54.5 39t-41.5 46.5t-41 39.5t-43.5 16 q-69 0 -69 -137h-104zM397 452h514l-255 728z" />
<glyph unicode="&#xc4;" horiz-adv-x="1306" d="M63 0l531 1413h122l527 -1413h-170l-108 307h-621l-108 -307h-173zM397 452h514l-255 728zM399 1590v175h169v-175h-169zM736 1590v175h168v-175h-168z" />
<glyph unicode="&#xc5;" horiz-adv-x="1316" d="M68 0l501 1337q-52 24 -83 73.5t-31 109.5q0 85 59 144.5t143 59.5t144.5 -59t60.5 -145q0 -58 -31.5 -107t-81.5 -73l499 -1340h-170l-108 307h-621l-108 -307h-173zM402 452h514l-255 728zM559 1521q0 -44 28 -72.5t70 -28.5t71 29t29 72q0 42 -28 70t-72 28t-71 -27 t-27 -71z" />
<glyph unicode="&#xc6;" horiz-adv-x="1825" d="M68 0l526 1413h1117v-129h-747v-510h659v-135h-659v-503h747v-136h-902v307h-466l-111 -307h-164zM392 448h417v836h-113z" />
<glyph unicode="&#xc7;" horiz-adv-x="1430" d="M129 707q0 120 23.5 227t74 199.5t124 159.5t179 105t232.5 38q197 0 345 -96.5t230 -279.5l-146 -63q-21 77 -63 134.5t-100 91.5t-124.5 50t-143.5 16q-121 0 -214.5 -46.5t-149 -127.5t-83 -181.5t-27.5 -216.5q0 -97 17 -183t54 -161.5t92 -130t135.5 -85.5 t179.5 -31q320 0 429 295l146 -63q-71 -161 -195.5 -256.5t-289.5 -116.5l-60 -102q90 -4 138 -55t48 -125q0 -83 -58.5 -145t-153.5 -62q-62 0 -111.5 35.5t-70.5 88.5l99 51q6 -29 30.5 -50.5t58.5 -21.5q44 0 71 28t27 68q0 51 -48 88t-138 37h-42l88 161 q-150 5 -267.5 65t-189.5 160t-109 227t-37 274z" />
<glyph unicode="&#xc8;" horiz-adv-x="1245" d="M215 0v1413h915v-137h-756v-502h657v-133h-657v-496h756v-145h-915zM340 1827h193l217 -291h-152z" />
<glyph unicode="&#xc9;" horiz-adv-x="1245" d="M215 0v1413h915v-137h-756v-502h657v-133h-657v-496h756v-145h-915zM574 1538l217 289h193l-276 -289h-134z" />
<glyph unicode="&#xca;" horiz-adv-x="1245" d="M215 0v1413h915v-137h-756v-502h657v-133h-657v-496h756v-145h-915zM342 1512l328 355l329 -355h-165l-164 186l-162 -186h-166z" />
<glyph unicode="&#xcb;" horiz-adv-x="1245" d="M215 0v1413h915v-137h-756v-502h657v-133h-657v-496h756v-145h-915zM415 1590v175h169v-175h-169zM752 1590v175h168v-175h-168z" />
<glyph unicode="&#xcc;" horiz-adv-x="589" d="M-37 1827h193l217 -291h-152zM215 0v1413h159v-1413h-159z" />
<glyph unicode="&#xcd;" horiz-adv-x="589" d="M197 1538l217 289h193l-276 -289h-134zM215 0v1413h159v-1413h-159z" />
<glyph unicode="&#xce;" horiz-adv-x="589" d="M-35 1512l328 355l329 -355h-165l-164 186l-162 -186h-166zM215 0v1413h159v-1413h-159z" />
<glyph unicode="&#xcf;" horiz-adv-x="589" d="M38 1590v175h169v-175h-169zM215 0v1413h159v-1413h-159zM375 1590v175h168v-175h-168z" />
<glyph unicode="&#xd0;" horiz-adv-x="1430" d="M120 655v115h113v643h365q342 0 524.5 -184.5t182.5 -532.5q0 -333 -185 -514.5t-524 -181.5h-363v655h-113zM394 147h177q125 0 227.5 33t180 99.5t120.5 175.5t43 252q0 276 -137.5 418.5t-410.5 142.5h-200v-498h381v-115h-381v-508z" />
<glyph unicode="&#xd1;" horiz-adv-x="1425" d="M215 0v1413h222l616 -1228v1228h157v-1413h-227l-609 1230v-1230h-159zM408 1580q0 114 44 182t124 68q41 0 74.5 -16.5t56 -40t41.5 -46.5t39.5 -39.5t42.5 -16.5q71 0 71 153h110q0 -128 -46.5 -196t-132.5 -68q-38 0 -70.5 16t-54.5 39t-41.5 46.5t-41 39.5t-43.5 16 q-69 0 -69 -137h-104z" />
<glyph unicode="&#xd2;" horiz-adv-x="1525" d="M128 707q0 119 24 226t75 199t125 159t178.5 105t230.5 38q157 0 280.5 -58t200 -159t116 -231t39.5 -279q0 -150 -39.5 -279.5t-116 -230.5t-200 -159t-280.5 -58q-126 0 -230.5 38t-178.5 105t-125 159t-75 199t-24 226zM283 707q0 -93 16.5 -177t54 -158.5t92 -128.5 t135.5 -85.5t180 -31.5q100 0 182 31.5t137 85.5t92 128.5t54 158.5t17 177t-17 176.5t-54 158t-92 128.5t-137 85.5t-182 31.5q-99 0 -180 -31.5t-135.5 -85.5t-92 -128.5t-54 -158t-16.5 -176.5zM431 1827h193l217 -291h-152z" />
<glyph unicode="&#xd3;" horiz-adv-x="1525" d="M128 707q0 119 24 226t75 199t125 159t178.5 105t230.5 38q157 0 280.5 -58t200 -159t116 -231t39.5 -279q0 -150 -39.5 -279.5t-116 -230.5t-200 -159t-280.5 -58q-126 0 -230.5 38t-178.5 105t-125 159t-75 199t-24 226zM283 707q0 -93 16.5 -177t54 -158.5t92 -128.5 t135.5 -85.5t180 -31.5q100 0 182 31.5t137 85.5t92 128.5t54 158.5t17 177t-17 176.5t-54 158t-92 128.5t-137 85.5t-182 31.5q-99 0 -180 -31.5t-135.5 -85.5t-92 -128.5t-54 -158t-16.5 -176.5zM665 1538l217 289h193l-276 -289h-134z" />
<glyph unicode="&#xd4;" horiz-adv-x="1525" d="M128 707q0 119 24 226t75 199t125 159t178.5 105t230.5 38q157 0 280.5 -58t200 -159t116 -231t39.5 -279q0 -150 -39.5 -279.5t-116 -230.5t-200 -159t-280.5 -58q-126 0 -230.5 38t-178.5 105t-125 159t-75 199t-24 226zM283 707q0 -93 16.5 -177t54 -158.5t92 -128.5 t135.5 -85.5t180 -31.5q100 0 182 31.5t137 85.5t92 128.5t54 158.5t17 177t-17 176.5t-54 158t-92 128.5t-137 85.5t-182 31.5q-99 0 -180 -31.5t-135.5 -85.5t-92 -128.5t-54 -158t-16.5 -176.5zM433 1512l328 355l329 -355h-165l-164 186l-162 -186h-166z" />
<glyph unicode="&#xd5;" horiz-adv-x="1525" d="M128 707q0 119 24 226t75 199t125 159t178.5 105t230.5 38q157 0 280.5 -58t200 -159t116 -231t39.5 -279q0 -150 -39.5 -279.5t-116 -230.5t-200 -159t-280.5 -58q-126 0 -230.5 38t-178.5 105t-125 159t-75 199t-24 226zM283 707q0 -93 16.5 -177t54 -158.5t92 -128.5 t135.5 -85.5t180 -31.5q100 0 182 31.5t137 85.5t92 128.5t54 158.5t17 177t-17 176.5t-54 158t-92 128.5t-137 85.5t-182 31.5q-99 0 -180 -31.5t-135.5 -85.5t-92 -128.5t-54 -158t-16.5 -176.5zM458 1580q0 114 44 182t124 68q41 0 74.5 -16.5t56 -40t41.5 -46.5 t39.5 -39.5t42.5 -16.5q71 0 71 153h110q0 -128 -46.5 -196t-132.5 -68q-38 0 -70.5 16t-54.5 39t-41.5 46.5t-41 39.5t-43.5 16q-69 0 -69 -137h-104z" />
<glyph unicode="&#xd6;" horiz-adv-x="1525" d="M128 707q0 119 24 226t75 199t125 159t178.5 105t230.5 38q157 0 280.5 -58t200 -159t116 -231t39.5 -279q0 -150 -39.5 -279.5t-116 -230.5t-200 -159t-280.5 -58q-126 0 -230.5 38t-178.5 105t-125 159t-75 199t-24 226zM283 707q0 -93 16.5 -177t54 -158.5t92 -128.5 t135.5 -85.5t180 -31.5q100 0 182 31.5t137 85.5t92 128.5t54 158.5t17 177t-17 176.5t-54 158t-92 128.5t-137 85.5t-182 31.5q-99 0 -180 -31.5t-135.5 -85.5t-92 -128.5t-54 -158t-16.5 -176.5zM506 1590v175h169v-175h-169zM843 1590v175h168v-175h-168z" />
<glyph unicode="&#xd7;" horiz-adv-x="1112" d="M150 950l81 82l327 -327l322 323l81 -80l-323 -323l326 -326l-80 -82l-326 327l-324 -323l-81 80l323 324z" />
<glyph unicode="&#xd8;" horiz-adv-x="1525" d="M128 707q0 119 24 226t75 199t125 159t178.5 105t230.5 38q174 0 307 -72l29 51h128l-64 -113q117 -98 176.5 -253t59.5 -340q0 -150 -39.5 -279.5t-116 -230.5t-200 -159t-280.5 -58q-176 0 -308 73l-30 -53h-128l66 116q-115 97 -174 252t-59 339zM283 707 q0 -139 38.5 -257.5t116.5 -198.5l556 981q-101 55 -233 55q-99 0 -180 -31.5t-135.5 -85.5t-92 -128.5t-54 -158t-16.5 -176.5zM527 183q101 -57 234 -57q100 0 182 31.5t137 85.5t92 128.5t54 158.5t17 177q0 140 -39.5 259.5t-119.5 198.5z" />
<glyph unicode="&#xd9;" horiz-adv-x="1356" d="M186 518v895h158v-850q0 -433 333 -433q336 0 336 433v850h159v-885q0 -90 -17.5 -170t-56 -150t-95.5 -120t-140 -79t-186 -29q-102 0 -185.5 29t-139.5 78.5t-94 118.5t-55 147t-17 165zM351 1827h193l217 -291h-152z" />
<glyph unicode="&#xda;" horiz-adv-x="1356" d="M186 518v895h158v-850q0 -433 333 -433q336 0 336 433v850h159v-885q0 -90 -17.5 -170t-56 -150t-95.5 -120t-140 -79t-186 -29q-102 0 -185.5 29t-139.5 78.5t-94 118.5t-55 147t-17 165zM585 1538l217 289h193l-276 -289h-134z" />
<glyph unicode="&#xdb;" horiz-adv-x="1356" d="M186 518v895h158v-850q0 -433 333 -433q336 0 336 433v850h159v-885q0 -90 -17.5 -170t-56 -150t-95.5 -120t-140 -79t-186 -29q-102 0 -185.5 29t-139.5 78.5t-94 118.5t-55 147t-17 165zM353 1512l328 355l329 -355h-165l-164 186l-162 -186h-166z" />
<glyph unicode="&#xdc;" horiz-adv-x="1356" d="M186 518v895h158v-850q0 -433 333 -433q336 0 336 433v850h159v-885q0 -90 -17.5 -170t-56 -150t-95.5 -120t-140 -79t-186 -29q-102 0 -185.5 29t-139.5 78.5t-94 118.5t-55 147t-17 165zM426 1590v175h169v-175h-169zM763 1590v175h168v-175h-168z" />
<glyph unicode="&#xdd;" horiz-adv-x="1341" d="M57 1413h184l430 -702l430 702h183l-536 -860v-553h-154v553zM575 1538l217 289h193l-276 -289h-134z" />
<glyph unicode="&#xde;" horiz-adv-x="1157" d="M215 0v1413h159v-199h250q203 0 322 -105.5t119 -289.5q0 -183 -123 -285t-329 -102h-239v-432h-159zM374 579h239q141 0 216.5 60t75.5 177t-76 180t-216 63h-239v-480z" />
<glyph unicode="&#xdf;" horiz-adv-x="1183" d="M172 0v908q0 141 31 245t88 164t128 88.5t159 28.5q98 0 188 -40.5t150 -120t60 -179.5q0 -47 -17 -84.5t-42.5 -60t-55.5 -44t-55.5 -38.5t-42.5 -42.5t-17 -56.5q0 -30 17.5 -58t45.5 -52t61.5 -49t67 -54.5t61.5 -63.5t45.5 -81t17.5 -102q0 -143 -97.5 -234.5 t-243.5 -91.5q-119 0 -265 66l61 140q103 -57 203 -57q71 0 130 48t59 114q0 58 -33 108t-79.5 88t-93 76.5t-79.5 91.5t-33 115q0 48 24 84.5t58 60.5t68 47.5t58 59t24 82.5q0 81 -65.5 136t-174.5 55q-263 0 -263 -390v-907h-148z" />
<glyph unicode="&#xe0;" horiz-adv-x="1033" d="M79 278q0 293 442 293h229q0 315 -245 315q-175 0 -277 -147l-109 85q138 192 377 192q187 0 289 -108.5t102 -294.5v-613h-127l-3 193q-52 -108 -145 -160.5t-206 -52.5q-144 0 -235.5 80t-91.5 218zM177 1413h193l217 -291h-152zM234 274q0 -85 52.5 -126.5 t136.5 -41.5q97 0 174 55t115 134.5t38 162.5h-214q-152 0 -227 -43.5t-75 -140.5z" />
<glyph unicode="&#xe1;" horiz-adv-x="1033" d="M79 278q0 293 442 293h229q0 315 -245 315q-175 0 -277 -147l-109 85q138 192 377 192q187 0 289 -108.5t102 -294.5v-613h-127l-3 193q-52 -108 -145 -160.5t-206 -52.5q-144 0 -235.5 80t-91.5 218zM234 274q0 -85 52.5 -126.5t136.5 -41.5q97 0 174 55t115 134.5 t38 162.5h-214q-152 0 -227 -43.5t-75 -140.5zM411 1124l217 289h193l-276 -289h-134z" />
<glyph unicode="&#xe2;" horiz-adv-x="1033" d="M79 278q0 293 442 293h229q0 315 -245 315q-175 0 -277 -147l-109 85q138 192 377 192q187 0 289 -108.5t102 -294.5v-613h-127l-3 193q-52 -108 -145 -160.5t-206 -52.5q-144 0 -235.5 80t-91.5 218zM179 1098l328 355l329 -355h-165l-164 186l-162 -186h-166zM234 274 q0 -85 52.5 -126.5t136.5 -41.5q97 0 174 55t115 134.5t38 162.5h-214q-152 0 -227 -43.5t-75 -140.5z" />
<glyph unicode="&#xe3;" horiz-adv-x="1033" d="M79 278q0 293 442 293h229q0 315 -245 315q-175 0 -277 -147l-109 85q138 192 377 192q187 0 289 -108.5t102 -294.5v-613h-127l-3 193q-52 -108 -145 -160.5t-206 -52.5q-144 0 -235.5 80t-91.5 218zM204 1166q0 114 44 182t124 68q41 0 74.5 -16.5t56 -40t41.5 -46.5 t39.5 -39.5t42.5 -16.5q71 0 71 153h110q0 -128 -46.5 -196t-132.5 -68q-38 0 -70.5 16t-54.5 39t-41.5 46.5t-41 39.5t-43.5 16q-69 0 -69 -137h-104zM234 274q0 -85 52.5 -126.5t136.5 -41.5q97 0 174 55t115 134.5t38 162.5h-214q-152 0 -227 -43.5t-75 -140.5z" />
<glyph unicode="&#xe4;" horiz-adv-x="1033" d="M79 278q0 293 442 293h229q0 315 -245 315q-175 0 -277 -147l-109 85q138 192 377 192q187 0 289 -108.5t102 -294.5v-613h-127l-3 193q-52 -108 -145 -160.5t-206 -52.5q-144 0 -235.5 80t-91.5 218zM234 274q0 -85 52.5 -126.5t136.5 -41.5q97 0 174 55t115 134.5 t38 162.5h-214q-152 0 -227 -43.5t-75 -140.5zM252 1176v175h169v-175h-169zM589 1176v175h168v-175h-168z" />
<glyph unicode="&#xe5;" horiz-adv-x="1033" d="M79 278q0 293 442 293h229q0 315 -245 315q-175 0 -277 -147l-109 85q138 192 377 192q187 0 289 -108.5t102 -294.5v-613h-127l-3 193q-52 -108 -145 -160.5t-206 -52.5q-144 0 -235.5 80t-91.5 218zM234 274q0 -85 52.5 -126.5t136.5 -41.5q97 0 174 55t115 134.5 t38 162.5h-214q-152 0 -227 -43.5t-75 -140.5zM302 1282q0 85 59 144.5t144 59.5q83 0 143.5 -59.5t60.5 -144.5q0 -84 -59.5 -143.5t-144.5 -59.5q-86 0 -144.5 59.5t-58.5 143.5zM407 1283q0 -44 28 -72.5t70 -28.5t71.5 29t29.5 72q0 42 -28.5 70t-72.5 28t-71 -27 t-27 -71z" />
<glyph unicode="&#xe6;" horiz-adv-x="1676" d="M79 273q0 154 97.5 226t267.5 72h310q0 325 -256 325q-86 0 -154.5 -42t-109.5 -105l-114 76q76 97 167 144t219 47q244 0 327 -190q98 186 328 186q95 0 169.5 -29t121.5 -77t77.5 -117t43 -142.5t12.5 -159.5l-2 -38h-696q-1 -140 74.5 -234.5t214.5 -94.5 q95 0 161 22.5t127 81.5l97 -82q-81 -82 -172 -118t-211 -36q-152 0 -248 75.5t-136 205.5q-106 -289 -395 -289q-134 0 -227 82t-93 211zM237 274q0 -68 64.5 -117t136.5 -49q133 0 227 105.5t89 235.5h-295q-96 0 -159 -46t-63 -129zM886 571h558q1 141 -71.5 224.5 t-212.5 83.5q-128 0 -199 -87t-75 -221z" />
<glyph unicode="&#xe7;" horiz-adv-x="981" d="M95 498q0 102 27.5 194t80 165t136.5 116t188 43q134 0 235 -69.5t155 -192.5l-142 -60q-22 90 -89.5 142t-158.5 52q-60 0 -108.5 -23.5t-79.5 -62t-52 -90t-30 -105t-9 -109.5q0 -73 15 -139t46 -124.5t87 -93t131 -34.5q91 0 158 52.5t90 141.5l130 -56 q-40 -111 -123 -179.5t-197 -82.5l-58 -100q90 -4 138 -55t48 -125q0 -83 -58.5 -145t-153.5 -62q-62 0 -111.5 35.5t-70.5 88.5l99 51q6 -29 30.5 -50.5t58.5 -21.5q44 0 71 28t27 68q0 51 -48 88t-138 37h-42l90 164q-177 24 -274.5 169.5t-97.5 344.5z" />
<glyph unicode="&#xe8;" horiz-adv-x="1038" d="M91 494q0 138 47 253.5t147 190t238 74.5q95 0 169.5 -29t122 -77t78.5 -117t43.5 -143t12.5 -159l-5 -38h-696q-2 -140 74.5 -234.5t215.5 -94.5q95 0 161 22.5t122 81.5l102 -82q-82 -82 -172 -118t-211 -36q-110 0 -197 40.5t-141.5 111t-82.5 160.5t-28 194z M182 1413h193l217 -291h-152zM248 571h558q1 141 -71 224.5t-212 83.5q-129 0 -199 -86.5t-76 -221.5z" />
<glyph unicode="&#xe9;" horiz-adv-x="1038" d="M91 494q0 138 47 253.5t147 190t238 74.5q95 0 169.5 -29t122 -77t78.5 -117t43.5 -143t12.5 -159l-5 -38h-696q-2 -140 74.5 -234.5t215.5 -94.5q95 0 161 22.5t122 81.5l102 -82q-82 -82 -172 -118t-211 -36q-110 0 -197 40.5t-141.5 111t-82.5 160.5t-28 194zM248 571 h558q1 141 -71 224.5t-212 83.5q-129 0 -199 -86.5t-76 -221.5zM416 1124l217 289h193l-276 -289h-134z" />
<glyph unicode="&#xea;" horiz-adv-x="1038" d="M91 494q0 138 47 253.5t147 190t238 74.5q95 0 169.5 -29t122 -77t78.5 -117t43.5 -143t12.5 -159l-5 -38h-696q-2 -140 74.5 -234.5t215.5 -94.5q95 0 161 22.5t122 81.5l102 -82q-82 -82 -172 -118t-211 -36q-110 0 -197 40.5t-141.5 111t-82.5 160.5t-28 194z M184 1098l328 355l329 -355h-165l-164 186l-162 -186h-166zM248 571h558q1 141 -71 224.5t-212 83.5q-129 0 -199 -86.5t-76 -221.5z" />
<glyph unicode="&#xeb;" horiz-adv-x="1038" d="M91 494q0 138 47 253.5t147 190t238 74.5q95 0 169.5 -29t122 -77t78.5 -117t43.5 -143t12.5 -159l-5 -38h-696q-2 -140 74.5 -234.5t215.5 -94.5q95 0 161 22.5t122 81.5l102 -82q-82 -82 -172 -118t-211 -36q-110 0 -197 40.5t-141.5 111t-82.5 160.5t-28 194zM248 571 h558q1 141 -71 224.5t-212 83.5q-129 0 -199 -86.5t-76 -221.5zM257 1176v175h169v-175h-169zM594 1176v175h168v-175h-168z" />
<glyph unicode="&#xec;" horiz-adv-x="505" d="M-79 1413h193l217 -291h-152zM170 0v999h165v-999h-165z" />
<glyph unicode="&#xed;" horiz-adv-x="505" d="M155 1124l217 289h193l-276 -289h-134zM170 0v999h165v-999h-165z" />
<glyph unicode="&#xee;" horiz-adv-x="505" d="M-77 1098l328 355l329 -355h-165l-164 186l-162 -186h-166zM170 0v999h165v-999h-165z" />
<glyph unicode="&#xef;" horiz-adv-x="505" d="M-4 1176v175h169v-175h-169zM170 0v999h165v-999h-165zM333 1176v175h168v-175h-168z" />
<glyph unicode="&#xf0;" horiz-adv-x="1163" d="M91 516q0 141 54.5 254.5t159.5 181.5t242 68q89 0 163.5 -27.5t110.5 -67.5q-41 193 -264 341l-91 -134l-91 59l88 132q-69 38 -167 77l76 116q97 -38 169 -77l62 92l95 -56l-62 -92q210 -136 310.5 -343.5t100.5 -516.5q0 -148 -55 -269t-165 -195.5t-256 -74.5 q-148 0 -259 75.5t-166 195t-55 261.5zM257 516q0 -76 19 -144t55.5 -123.5t98.5 -88.5t140 -33q103 0 175.5 57.5t104.5 143.5t32 189q0 105 -33.5 191t-106 141.5t-172.5 55.5q-78 0 -140 -33t-98.5 -88.5t-55.5 -123.5t-19 -144z" />
<glyph unicode="&#xf1;" horiz-adv-x="1125" d="M170 0v999h149v-157q48 79 133 126.5t181 47.5q90 0 158 -32t108 -89.5t59 -129.5t19 -158v-607h-150v592q0 282 -212 282q-120 0 -208 -91.5t-88 -214.5v-568h-149zM249 1166q0 114 44 182t124 68q41 0 74.5 -16.5t56 -40t41.5 -46.5t39.5 -39.5t42.5 -16.5q71 0 71 153 h110q0 -128 -46.5 -196t-132.5 -68q-38 0 -70.5 16t-54.5 39t-41.5 46.5t-41 39.5t-43.5 16q-69 0 -69 -137h-104z" />
<glyph unicode="&#xf2;" horiz-adv-x="1125" d="M89 496q0 217 132.5 366.5t340.5 149.5q136 0 245.5 -69.5t169 -187.5t59.5 -259q0 -142 -59.5 -259.5t-169 -187t-245.5 -69.5q-208 0 -340.5 149t-132.5 367zM232 1413h193l217 -291h-152zM256 496q0 -78 17 -145t52.5 -121.5t96 -86t140.5 -31.5q81 0 141.5 31.5 t96 86t52.5 121.5t17 145t-17 144.5t-52.5 121.5t-96 86t-141.5 31q-64 0 -116.5 -21t-87 -56.5t-58 -84.5t-34 -104t-10.5 -117z" />
<glyph unicode="&#xf3;" horiz-adv-x="1125" d="M89 496q0 217 132.5 366.5t340.5 149.5q136 0 245.5 -69.5t169 -187.5t59.5 -259q0 -142 -59.5 -259.5t-169 -187t-245.5 -69.5q-208 0 -340.5 149t-132.5 367zM256 496q0 -78 17 -145t52.5 -121.5t96 -86t140.5 -31.5q81 0 141.5 31.5t96 86t52.5 121.5t17 145 t-17 144.5t-52.5 121.5t-96 86t-141.5 31q-64 0 -116.5 -21t-87 -56.5t-58 -84.5t-34 -104t-10.5 -117zM466 1124l217 289h193l-276 -289h-134z" />
<glyph unicode="&#xf4;" horiz-adv-x="1125" d="M89 496q0 217 132.5 366.5t340.5 149.5q136 0 245.5 -69.5t169 -187.5t59.5 -259q0 -142 -59.5 -259.5t-169 -187t-245.5 -69.5q-208 0 -340.5 149t-132.5 367zM234 1098l328 355l329 -355h-165l-164 186l-162 -186h-166zM256 496q0 -78 17 -145t52.5 -121.5t96 -86 t140.5 -31.5q81 0 141.5 31.5t96 86t52.5 121.5t17 145t-17 144.5t-52.5 121.5t-96 86t-141.5 31q-64 0 -116.5 -21t-87 -56.5t-58 -84.5t-34 -104t-10.5 -117z" />
<glyph unicode="&#xf5;" horiz-adv-x="1125" d="M89 496q0 217 132.5 366.5t340.5 149.5q136 0 245.5 -69.5t169 -187.5t59.5 -259q0 -142 -59.5 -259.5t-169 -187t-245.5 -69.5q-208 0 -340.5 149t-132.5 367zM256 496q0 -78 17 -145t52.5 -121.5t96 -86t140.5 -31.5q81 0 141.5 31.5t96 86t52.5 121.5t17 145 t-17 144.5t-52.5 121.5t-96 86t-141.5 31q-64 0 -116.5 -21t-87 -56.5t-58 -84.5t-34 -104t-10.5 -117zM259 1166q0 114 44 182t124 68q41 0 74.5 -16.5t56 -40t41.5 -46.5t39.5 -39.5t42.5 -16.5q71 0 71 153h110q0 -128 -46.5 -196t-132.5 -68q-38 0 -70.5 16t-54.5 39 t-41.5 46.5t-41 39.5t-43.5 16q-69 0 -69 -137h-104z" />
<glyph unicode="&#xf6;" horiz-adv-x="1125" d="M89 496q0 217 132.5 366.5t340.5 149.5q136 0 245.5 -69.5t169 -187.5t59.5 -259q0 -142 -59.5 -259.5t-169 -187t-245.5 -69.5q-208 0 -340.5 149t-132.5 367zM256 496q0 -78 17 -145t52.5 -121.5t96 -86t140.5 -31.5q81 0 141.5 31.5t96 86t52.5 121.5t17 145 t-17 144.5t-52.5 121.5t-96 86t-141.5 31q-64 0 -116.5 -21t-87 -56.5t-58 -84.5t-34 -104t-10.5 -117zM307 1176v175h169v-175h-169zM644 1176v175h168v-175h-168z" />
<glyph unicode="&#xf7;" horiz-adv-x="967" d="M130 571v114h699v-114h-699zM382 142v193h196v-193h-196zM382 902v194h196v-194h-196z" />
<glyph unicode="&#xf8;" horiz-adv-x="1125" d="M89 496q0 217 132.5 366.5t340.5 149.5q116 0 215 -52l21 37h90l-45 -80q91 -70 142 -180.5t51 -240.5q0 -142 -59.5 -259.5t-169 -187t-245.5 -69.5q-121 0 -220 54l-18 -32h-90l42 75q-88 71 -137.5 180.5t-49.5 238.5zM256 496q0 -192 91 -294l364 642q-65 35 -149 35 q-64 0 -116.5 -21t-87 -56.5t-58 -84.5t-34 -104t-10.5 -117zM408 151q66 -39 154 -39q81 0 141.5 31.5t96 86t52.5 121.5t17 145q0 196 -96 299z" />
<glyph unicode="&#xf9;" horiz-adv-x="1121" d="M146 407v592h149v-598q0 -56 9.5 -104t31.5 -93.5t65 -71.5t104 -26q122 0 210.5 96t88.5 235v562h148v-999h-148v169q-35 -74 -120.5 -133t-193.5 -59q-90 0 -157.5 34t-107.5 94.5t-59.5 136t-19.5 165.5zM232 1413h193l217 -291h-152z" />
<glyph unicode="&#xfa;" horiz-adv-x="1121" d="M146 407v592h149v-598q0 -56 9.5 -104t31.5 -93.5t65 -71.5t104 -26q122 0 210.5 96t88.5 235v562h148v-999h-148v169q-35 -74 -120.5 -133t-193.5 -59q-90 0 -157.5 34t-107.5 94.5t-59.5 136t-19.5 165.5zM466 1124l217 289h193l-276 -289h-134z" />
<glyph unicode="&#xfb;" horiz-adv-x="1121" d="M146 407v592h149v-598q0 -56 9.5 -104t31.5 -93.5t65 -71.5t104 -26q122 0 210.5 96t88.5 235v562h148v-999h-148v169q-35 -74 -120.5 -133t-193.5 -59q-90 0 -157.5 34t-107.5 94.5t-59.5 136t-19.5 165.5zM234 1098l328 355l329 -355h-165l-164 186l-162 -186h-166z " />
<glyph unicode="&#xfc;" horiz-adv-x="1121" d="M146 407v592h149v-598q0 -56 9.5 -104t31.5 -93.5t65 -71.5t104 -26q122 0 210.5 96t88.5 235v562h148v-999h-148v169q-35 -74 -120.5 -133t-193.5 -59q-90 0 -157.5 34t-107.5 94.5t-59.5 136t-19.5 165.5zM307 1176v175h169v-175h-169zM644 1176v175h168v-175h-168z " />
<glyph unicode="&#xfd;" horiz-adv-x="985" d="M40 999h165l293 -817l284 817h163l-535 -1429h-157l171 435zM392 1124l217 289h193l-276 -289h-134z" />
<glyph unicode="&#xfe;" horiz-adv-x="1147" d="M175 -438v1851h160v-553q49 76 129 118t185 42q94 0 170.5 -41t125.5 -112t75.5 -165t26.5 -202t-26.5 -202t-75.5 -165t-125.5 -112t-170.5 -41q-207 0 -314 159v-577h-160zM318 500q0 -165 74.5 -273.5t215.5 -108.5q96 0 162 53.5t95 137.5t29 191q0 78 -17 145.5 t-51 121t-90 84t-128 30.5t-128.5 -30.5t-91 -84t-52.5 -121t-18 -145.5z" />
<glyph unicode="&#xff;" horiz-adv-x="985" d="M40 999h165l293 -817l284 817h163l-535 -1429h-157l171 435zM233 1176v175h169v-175h-169zM570 1176v175h168v-175h-168z" />
<glyph unicode="&#x152;" horiz-adv-x="2252" d="M128 707q0 119 24 226t75 199t125 159t178.5 105t230.5 38q345 0 477 -276v255h899v-137h-740v-502h657v-133h-657v-496h740v-145h-899v256q-128 -276 -477 -276q-126 0 -230.5 38t-178.5 105t-125 159t-75 199t-24 226zM287 707q0 -118 27 -219.5t82 -184.5t148.5 -131 t216.5 -48q124 0 218.5 48t149.5 131t82 184.5t27 219.5q0 93 -16.5 176.5t-53 158.5t-90.5 129.5t-135.5 86t-181.5 31.5q-123 0 -216.5 -48t-148.5 -130.5t-82 -184.5t-27 -219z" />
<glyph unicode="&#x153;" horiz-adv-x="1788" d="M89 496q0 141 58.5 258.5t167 187.5t245.5 70q126 0 221.5 -55.5t152.5 -155.5q49 98 137.5 154.5t213.5 56.5q95 0 169 -29t121 -77.5t77 -117.5t42 -142.5t12 -159.5l-2 -37h-696q1 -142 77 -237.5t215 -95.5q92 0 157.5 23t121.5 83l100 -80q-79 -84 -168 -119 t-208 -35q-252 0 -367 208q-56 -101 -152 -158.5t-224 -57.5q-138 0 -246.5 70t-166.5 187t-58 259zM254 495q0 -77 17.5 -143t53 -119.5t96 -84t139.5 -30.5q81 0 142.5 30.5t96.5 84.5t52 119.5t17 143.5t-17 144t-52.5 120t-96.5 84.5t-142 30.5q-80 0 -140.5 -31 t-95.5 -85t-52.5 -120.5t-17.5 -143.5zM1007 571h561q1 141 -71.5 226t-211.5 85q-131 0 -201.5 -87.5t-76.5 -223.5z" />
<glyph unicode="&#x178;" horiz-adv-x="1341" d="M57 1413h184l430 -702l430 702h183l-536 -860v-553h-154v553zM416 1590v175h169v-175h-169zM753 1590v175h168v-175h-168z" />
<glyph unicode="&#x2c6;" horiz-adv-x="758" d="M99 1098l328 355l329 -355h-165l-164 186l-162 -186h-166z" />
<glyph unicode="&#x2dc;" horiz-adv-x="1008" d="M219 1169q0 114 44 182t124 68q41 0 74.5 -16.5t56 -39.5t41.5 -46.5t39.5 -40t42.5 -16.5q71 0 71 153h110q0 -128 -46.5 -196t-132.5 -68q-38 0 -70.5 16t-54.5 39.5t-41.5 46.5t-41 39t-43.5 16q-69 0 -69 -137h-104z" />
<glyph unicode="&#x2000;" horiz-adv-x="933" />
<glyph unicode="&#x2001;" horiz-adv-x="1867" />
<glyph unicode="&#x2002;" horiz-adv-x="933" />
<glyph unicode="&#x2003;" horiz-adv-x="1867" />
<glyph unicode="&#x2004;" horiz-adv-x="622" />
<glyph unicode="&#x2005;" horiz-adv-x="466" />
<glyph unicode="&#x2006;" horiz-adv-x="311" />
<glyph unicode="&#x2007;" horiz-adv-x="311" />
<glyph unicode="&#x2008;" horiz-adv-x="233" />
<glyph unicode="&#x2009;" horiz-adv-x="373" />
<glyph unicode="&#x200a;" horiz-adv-x="103" />
<glyph unicode="&#x2010;" horiz-adv-x="838" d="M163 621v114h513v-114h-513z" />
<glyph unicode="&#x2011;" horiz-adv-x="838" d="M163 621v114h513v-114h-513z" />
<glyph unicode="&#x2012;" horiz-adv-x="838" d="M163 621v114h513v-114h-513z" />
<glyph unicode="&#x2013;" horiz-adv-x="1023" d="M163 578v114h697v-114h-697z" />
<glyph unicode="&#x2014;" horiz-adv-x="1678" d="M163 578v114h1353v-114h-1353z" />
<glyph unicode="&#x2018;" horiz-adv-x="565" d="M104 1413h197l119 -486h-95z" />
<glyph unicode="&#x2019;" horiz-adv-x="564" d="M144 927l121 486h194l-222 -486h-93z" />
<glyph unicode="&#x201a;" horiz-adv-x="568" d="M144 -225l122 489h196l-221 -489h-97z" />
<glyph unicode="&#x201c;" horiz-adv-x="872" d="M104 1413h197l119 -486h-95zM413 1413h195l121 -486h-93z" />
<glyph unicode="&#x201d;" horiz-adv-x="872" d="M144 927l121 486h194l-222 -486h-93zM453 927l122 486h193l-221 -486h-94z" />
<glyph unicode="&#x201e;" horiz-adv-x="881" d="M144 -225l122 489h196l-221 -489h-97zM460 -225l121 489h197l-221 -489h-97z" />
<glyph unicode="&#x2022;" horiz-adv-x="830" d="M177 481q0 98 70 168t168 70t167.5 -70t69.5 -168t-69.5 -167.5t-167.5 -69.5t-168 69.5t-70 167.5z" />
<glyph unicode="&#x2026;" horiz-adv-x="1496" d="M235 0v194h198v-194h-198zM649 0v194h198v-194h-198zM1063 0v194h198v-194h-198z" />
<glyph unicode="&#x202f;" horiz-adv-x="373" />
<glyph unicode="&#x2039;" horiz-adv-x="608" d="M70 512l370 325v-162l-194 -163l194 -165v-162z" />
<glyph unicode="&#x203a;" horiz-adv-x="609" d="M167 185v162l193 165l-193 163v162l369 -325z" />
<glyph unicode="&#x205f;" horiz-adv-x="466" />
<glyph unicode="&#x20ac;" horiz-adv-x="1283" d="M150 474l55 128h60q-2 35 -2 105q0 76 5 117h-118l55 124h80q21 107 61.5 194.5t101 154t144 103t184.5 36.5q230 0 369 -192l-107 -89q-86 140 -265 140q-134 0 -223 -96t-126 -251h525l-54 -128h-492q-4 -68 -4 -105q0 -43 4 -115h546l-54 -129h-471q37 -157 126 -254 t228 -97q171 0 256 142l99 -108q-136 -174 -355 -174q-103 0 -188 37t-145.5 103.5t-101 155.5t-60.5 198h-133z" />
<glyph unicode="&#x2122;" horiz-adv-x="1302" d="M154 1344v69h372v-69h-145v-467h-81v467h-146zM589 877v536h93l137 -353l138 353h88v-536h-81v385l-110 -304h-70l-113 307v-388h-82z" />
<glyph unicode="&#x25fc;" horiz-adv-x="1000" d="M0 0v1000h1000v-1000h-1000z" />
<glyph unicode="&#xfb03;" horiz-adv-x="1550" d="M50 877v122h143v123q0 138 96.5 225t238.5 87q168 0 284 -109q47 48 122 78.5t154 30.5q149 0 304 -118l-71 -106q-6 9 -29.5 28.5t-80.5 44t-119 24.5q-95 0 -154.5 -51.5t-59.5 -137.5v-119h523v-999h-135v877h-388v-877h-141v877h-402v-877h-144v877h-141zM335 999 h404v123q0 54 6 95q-19 29 -73.5 59.5t-134.5 30.5q-94 0 -148 -50.5t-54 -138.5v-119z" />
<glyph unicode="&#xfb04;" horiz-adv-x="1591" d="M52 877v122h143v117q0 141 96.5 229.5t243.5 88.5q163 0 296 -110q105 110 276 110q94 0 157 -29.5t139 -104.5v-1122q0 -23 2 -33t12 -17.5t32 -7.5q34 0 67 11v-131q-60 -20 -110 -20q-139 0 -139 151v1102q-19 31 -64 52.5t-101 21.5q-91 0 -147 -53t-56 -142v-113 h164v-122h-164v-877h-141v877h-421v-877h-144v877h-141zM337 999h423q0 166 8 206q-82 102 -216 102q-96 0 -155.5 -51.5t-59.5 -141.5v-115z" />
</font>
</defs>
</svg>
